<svg xmlns="http://www.w3.org/2000/svg" width="512" height="512" viewBox="0 0 512 512"><defs><clipPath id="c"><circle cx="256" cy="256" r="225.28"/></clipPath></defs><g clip-path="url(#c)"><polygon points="256.0,256.0 315.3,290.6 281.3,315.4" fill="#E1BF70" stroke="#E1BF70" stroke-width="1.2" stroke-linejoin="round"/><polygon points="256.0,256.0 281.3,315.4 242.3,321.2" fill="#F4D06C" stroke="#F4D06C" stroke-width="1.2" stroke-linejoin="round"/><polygon points="256.0,256.0 242.3,321.2 206.6,303.1" fill="#F2CF78" stroke="#F2CF78" stroke-width="1.2" stroke-linejoin="round"/><polygon points="256.0,256.0 206.6,303.1 187.5,262.0" fill="#F5B671" stroke="#F5B671" stroke-width="1.2" stroke-linejoin="round"/><polygon points="256.0,256.0 187.5,262.0 198.3,226.0" fill="#E1BB78" stroke="#E1BB78" stroke-width="1.2" stroke-linejoin="round"/><polygon points="256.0,256.0 198.3,226.0 226.8,197.4" fill="#DDC177" stroke="#DDC177" stroke-width="1.2" stroke-linejoin="round"/><polygon points="256.0,256.0 226.8,197.4 270.5,189.0" fill="#F3BF6B" stroke="#F3BF6B" stroke-width="1.2" stroke-linejoin="round"/><polygon points="256.0,256.0 270.5,189.0 305.9,211.5" fill="#DDAE7A" stroke="#DDAE7A" stroke-width="1.2" stroke-linejoin="round"/><polygon points="256.0,256.0 305.9,211.5 322.5,247.9" fill="#EBCF7F" stroke="#EBCF7F" stroke-width="1.2" stroke-linejoin="round"/><polygon points="256.0,256.0 322.5,247.9 315.3,290.6" fill="#E6CA78" stroke="#E6CA78" stroke-width="1.2" stroke-linejoin="round"/><polygon points="315.3,290.6 281.3,315.4 316.0,376.3 372.7,325.5" fill="#DE9D3F" stroke="#DE9D3F" stroke-width="1.2" stroke-linejoin="round"/><polygon points="281.3,315.4 242.3,321.2 233.4,388.3 316.0,376.3" fill="#ED9B20" stroke="#ED9B20" stroke-width="1.2" stroke-linejoin="round"/><polygon points="242.3,321.2 206.6,303.1 164.1,346.6 233.4,388.3" fill="#CBAD4E" stroke="#CBAD4E" stroke-width="1.2" stroke-linejoin="round"/><polygon points="206.6,303.1 187.5,262.0 121.1,276.1 164.1,346.6" fill="#CBA75A" stroke="#CBA75A" stroke-width="1.2" stroke-linejoin="round"/><polygon points="187.5,262.0 198.3,226.0 142.8,194.7 121.1,276.1" fill="#CD8D4F" stroke="#CD8D4F" stroke-width="1.2" stroke-linejoin="round"/><polygon points="198.3,226.0 226.8,197.4 203.9,137.3 142.8,194.7" fill="#F0BF3D" stroke="#F0BF3D" stroke-width="1.2" stroke-linejoin="round"/><polygon points="226.8,197.4 270.5,189.0 282.6,135.4 203.9,137.3" fill="#D49147" stroke="#D49147" stroke-width="1.2" stroke-linejoin="round"/><polygon points="270.5,189.0 305.9,211.5 353.1,166.3 282.6,135.4" fill="#CA9E3C" stroke="#CA9E3C" stroke-width="1.2" stroke-linejoin="round"/><polygon points="305.9,211.5 322.5,247.9 386.7,238.2 353.1,166.3" fill="#E7942F" stroke="#E7942F" stroke-width="1.2" stroke-linejoin="round"/><polygon points="322.5,247.9 315.3,290.6 372.7,325.5 386.7,238.2" fill="#C69E49" stroke="#C69E49" stroke-width="1.2" stroke-linejoin="round"/><polygon points="372.7,325.5 316.0,376.3 328.7,425.9 420.7,350.9" fill="#9C6D28" stroke="#9C6D28" stroke-width="1.2" stroke-linejoin="round"/><polygon points="316.0,376.3 233.4,388.3 224.3,446.9 328.7,425.9" fill="#A4611D" stroke="#A4611D" stroke-width="1.2" stroke-linejoin="round"/><polygon points="233.4,388.3 164.1,346.6 115.2,381.2 224.3,446.9" fill="#C2921D" stroke="#C2921D" stroke-width="1.2" stroke-linejoin="round"/><polygon points="164.1,346.6 121.1,276.1 62.9,273.1 115.2,381.2" fill="#CD831E" stroke="#CD831E" stroke-width="1.2" stroke-linejoin="round"/><polygon points="121.1,276.1 142.8,194.7 86.2,163.2 62.9,273.1" fill="#CE8D19" stroke="#CE8D19" stroke-width="1.2" stroke-linejoin="round"/><polygon points="142.8,194.7 203.9,137.3 180.9,82.3 86.2,163.2" fill="#B27735" stroke="#B27735" stroke-width="1.2" stroke-linejoin="round"/><polygon points="203.9,137.3 282.6,135.4 290.6,83.9 180.9,82.3" fill="#B57526" stroke="#B57526" stroke-width="1.2" stroke-linejoin="round"/><polygon points="282.6,135.4 353.1,166.3 394.6,122.4 290.6,83.9" fill="#B68324" stroke="#B68324" stroke-width="1.2" stroke-linejoin="round"/><polygon points="353.1,166.3 386.7,238.2 447.2,236.7 394.6,122.4" fill="#B99829" stroke="#B99829" stroke-width="1.2" stroke-linejoin="round"/><polygon points="386.7,238.2 372.7,325.5 420.7,350.9 447.2,236.7" fill="#BF7826" stroke="#BF7826" stroke-width="1.2" stroke-linejoin="round"/><polygon points="420.7,350.9 328.7,425.9 355.8,464.4 454.6,365.7" fill="#725A19" stroke="#725A19" stroke-width="1.2" stroke-linejoin="round"/><polygon points="328.7,425.9 224.3,446.9 206.7,477.7 355.8,464.4" fill="#755B20" stroke="#755B20" stroke-width="1.2" stroke-linejoin="round"/><polygon points="224.3,446.9 115.2,381.2 85.5,410.9 206.7,477.7" fill="#937117" stroke="#937117" stroke-width="1.2" stroke-linejoin="round"/><polygon points="115.2,381.2 62.9,273.1 20.4,287.2 85.5,410.9" fill="#8D721A" stroke="#8D721A" stroke-width="1.2" stroke-linejoin="round"/><polygon points="62.9,273.1 86.2,163.2 56.6,143.4 20.4,287.2" fill="#794F22" stroke="#794F22" stroke-width="1.2" stroke-linejoin="round"/><polygon points="86.2,163.2 180.9,82.3 167.5,45.9 56.6,143.4" fill="#A4680D" stroke="#A4680D" stroke-width="1.2" stroke-linejoin="round"/><polygon points="180.9,82.3 290.6,83.9 294.3,23.8 167.5,45.9" fill="#765724" stroke="#765724" stroke-width="1.2" stroke-linejoin="round"/><polygon points="290.6,83.9 394.6,122.4 422.8,99.7 294.3,23.8" fill="#785B1E" stroke="#785B1E" stroke-width="1.2" stroke-linejoin="round"/><polygon points="394.6,122.4 447.2,236.7 491.1,234.4 422.8,99.7" fill="#9E550C" stroke="#9E550C" stroke-width="1.2" stroke-linejoin="round"/><polygon points="447.2,236.7 420.7,350.9 454.6,365.7 491.1,234.4" fill="#7D5911" stroke="#7D5911" stroke-width="1.2" stroke-linejoin="round"/></g><circle cx="256" cy="256" r="225.28" fill="none" stroke="#EBC484" stroke-width="7" opacity="0.9"/></svg>