<svg xmlns="http://www.w3.org/2000/svg" width="512" height="512" viewBox="0 0 512 512"><defs><clipPath id="c"><circle cx="256" cy="256" r="225.28"/></clipPath></defs><g clip-path="url(#c)"><polygon points="256.0,256.0 259.1,322.5 226.1,314.0" fill="#94CCB3" stroke="#94CCB3" stroke-width="1.2" stroke-linejoin="round"/><polygon points="256.0,256.0 226.1,314.0 203.1,293.2" fill="#83C3A9" stroke="#83C3A9" stroke-width="1.2" stroke-linejoin="round"/><polygon points="256.0,256.0 203.1,293.2 189.4,262.9" fill="#82C5A3" stroke="#82C5A3" stroke-width="1.2" stroke-linejoin="round"/><polygon points="256.0,256.0 189.4,262.9 192.9,226.6" fill="#8FC5B4" stroke="#8FC5B4" stroke-width="1.2" stroke-linejoin="round"/><polygon points="256.0,256.0 192.9,226.6 214.1,199.1" fill="#93C1A8" stroke="#93C1A8" stroke-width="1.2" stroke-linejoin="round"/><polygon points="256.0,256.0 214.1,199.1 249.9,188.3" fill="#9BCDBA" stroke="#9BCDBA" stroke-width="1.2" stroke-linejoin="round"/><polygon points="256.0,256.0 249.9,188.3 284.2,195.7" fill="#9DBFB2" stroke="#9DBFB2" stroke-width="1.2" stroke-linejoin="round"/><polygon points="256.0,256.0 284.2,195.7 311.2,219.0" fill="#92BEA9" stroke="#92BEA9" stroke-width="1.2" stroke-linejoin="round"/><polygon points="256.0,256.0 311.2,219.0 321.9,248.7" fill="#8FB8A5" stroke="#8FB8A5" stroke-width="1.2" stroke-linejoin="round"/><polygon points="256.0,256.0 321.9,248.7 316.8,287.7" fill="#8BC7AA" stroke="#8BC7AA" stroke-width="1.2" stroke-linejoin="round"/><polygon points="256.0,256.0 316.8,287.7 295.7,311.4" fill="#8CBCAA" stroke="#8CBCAA" stroke-width="1.2" stroke-linejoin="round"/><polygon points="256.0,256.0 295.7,311.4 259.1,322.5" fill="#92BBAF" stroke="#92BBAF" stroke-width="1.2" stroke-linejoin="round"/><polygon points="259.1,322.5 226.1,314.0 198.8,368.8 266.8,385.9" fill="#67A392" stroke="#67A392" stroke-width="1.2" stroke-linejoin="round"/><polygon points="226.1,314.0 203.1,293.2 150.7,324.7 198.8,368.8" fill="#4EAD91" stroke="#4EAD91" stroke-width="1.2" stroke-linejoin="round"/><polygon points="203.1,293.2 189.4,262.9 129.8,269.0 150.7,324.7" fill="#63B39A" stroke="#63B39A" stroke-width="1.2" stroke-linejoin="round"/><polygon points="189.4,262.9 192.9,226.6 138.4,197.8 129.8,269.0" fill="#74A497" stroke="#74A497" stroke-width="1.2" stroke-linejoin="round"/><polygon points="192.9,226.6 214.1,199.1 183.7,149.2 138.4,197.8" fill="#63A490" stroke="#63A490" stroke-width="1.2" stroke-linejoin="round"/><polygon points="214.1,199.1 249.9,188.3 242.4,122.9 183.7,149.2" fill="#61A289" stroke="#61A289" stroke-width="1.2" stroke-linejoin="round"/><polygon points="249.9,188.3 284.2,195.7 317.8,135.0 242.4,122.9" fill="#64B89F" stroke="#64B89F" stroke-width="1.2" stroke-linejoin="round"/><polygon points="284.2,195.7 311.2,219.0 361.7,182.9 317.8,135.0" fill="#6BA58E" stroke="#6BA58E" stroke-width="1.2" stroke-linejoin="round"/><polygon points="311.2,219.0 321.9,248.7 389.0,242.4 361.7,182.9" fill="#63B19A" stroke="#63B19A" stroke-width="1.2" stroke-linejoin="round"/><polygon points="321.9,248.7 316.8,287.7 377.5,310.5 389.0,242.4" fill="#70B18E" stroke="#70B18E" stroke-width="1.2" stroke-linejoin="round"/><polygon points="316.8,287.7 295.7,311.4 335.5,364.8 377.5,310.5" fill="#4FAE7F" stroke="#4FAE7F" stroke-width="1.2" stroke-linejoin="round"/><polygon points="295.7,311.4 259.1,322.5 266.8,385.9 335.5,364.8" fill="#66AF8A" stroke="#66AF8A" stroke-width="1.2" stroke-linejoin="round"/><polygon points="266.8,385.9 198.8,368.8 181.0,414.7 273.5,435.5" fill="#447567" stroke="#447567" stroke-width="1.2" stroke-linejoin="round"/><polygon points="198.8,368.8 150.7,324.7 96.3,361.3 181.0,414.7" fill="#558579" stroke="#558579" stroke-width="1.2" stroke-linejoin="round"/><polygon points="150.7,324.7 129.8,269.0 77.1,268.8 96.3,361.3" fill="#4A8768" stroke="#4A8768" stroke-width="1.2" stroke-linejoin="round"/><polygon points="129.8,269.0 138.4,197.8 85.8,181.4 77.1,268.8" fill="#4A9177" stroke="#4A9177" stroke-width="1.2" stroke-linejoin="round"/><polygon points="138.4,197.8 183.7,149.2 158.1,107.8 85.8,181.4" fill="#497E65" stroke="#497E65" stroke-width="1.2" stroke-linejoin="round"/><polygon points="183.7,149.2 242.4,122.9 246.3,62.8 158.1,107.8" fill="#528776" stroke="#528776" stroke-width="1.2" stroke-linejoin="round"/><polygon points="242.4,122.9 317.8,135.0 336.4,80.0 246.3,62.8" fill="#4E7D69" stroke="#4E7D69" stroke-width="1.2" stroke-linejoin="round"/><polygon points="317.8,135.0 361.7,182.9 414.2,154.1 336.4,80.0" fill="#54826A" stroke="#54826A" stroke-width="1.2" stroke-linejoin="round"/><polygon points="361.7,182.9 389.0,242.4 438.1,236.1 414.2,154.1" fill="#469A73" stroke="#469A73" stroke-width="1.2" stroke-linejoin="round"/><polygon points="389.0,242.4 377.5,310.5 417.3,336.9 438.1,236.1" fill="#558E7A" stroke="#558E7A" stroke-width="1.2" stroke-linejoin="round"/><polygon points="377.5,310.5 335.5,364.8 366.9,410.1 417.3,336.9" fill="#427C60" stroke="#427C60" stroke-width="1.2" stroke-linejoin="round"/><polygon points="335.5,364.8 266.8,385.9 273.5,435.5 366.9,410.1" fill="#487163" stroke="#487163" stroke-width="1.2" stroke-linejoin="round"/><polygon points="273.5,435.5 181.0,414.7 151.5,460.3 280.2,493.5" fill="#376A51" stroke="#376A51" stroke-width="1.2" stroke-linejoin="round"/><polygon points="181.0,414.7 96.3,361.3 73.5,388.5 151.5,460.3" fill="#357459" stroke="#357459" stroke-width="1.2" stroke-linejoin="round"/><polygon points="96.3,361.3 77.1,268.8 26.6,280.2 73.5,388.5" fill="#3D6254" stroke="#3D6254" stroke-width="1.2" stroke-linejoin="round"/><polygon points="77.1,268.8 85.8,181.4 49.4,160.6 26.6,280.2" fill="#357554" stroke="#357554" stroke-width="1.2" stroke-linejoin="round"/><polygon points="85.8,181.4 158.1,107.8 134.0,64.3 49.4,160.6" fill="#325444" stroke="#325444" stroke-width="1.2" stroke-linejoin="round"/><polygon points="158.1,107.8 246.3,62.8 245.3,18.1 134.0,64.3" fill="#3A5B4E" stroke="#3A5B4E" stroke-width="1.2" stroke-linejoin="round"/><polygon points="246.3,62.8 336.4,80.0 360.5,44.8 245.3,18.1" fill="#38725B" stroke="#38725B" stroke-width="1.2" stroke-linejoin="round"/><polygon points="336.4,80.0 414.2,154.1 448.4,117.7 360.5,44.8" fill="#336556" stroke="#336556" stroke-width="1.2" stroke-linejoin="round"/><polygon points="414.2,154.1 438.1,236.1 484.8,230.8 448.4,117.7" fill="#406555" stroke="#406555" stroke-width="1.2" stroke-linejoin="round"/><polygon points="438.1,236.1 417.3,336.9 464.6,362.6 484.8,230.8" fill="#38695A" stroke="#38695A" stroke-width="1.2" stroke-linejoin="round"/><polygon points="417.3,336.9 366.9,410.1 383.1,455.6 464.6,362.6" fill="#397460" stroke="#397460" stroke-width="1.2" stroke-linejoin="round"/><polygon points="366.9,410.1 273.5,435.5 280.2,493.5 383.1,455.6" fill="#396E57" stroke="#396E57" stroke-width="1.2" stroke-linejoin="round"/></g><circle cx="256" cy="256" r="225.28" fill="none" stroke="#A2CDBC" stroke-width="7" opacity="0.9"/></svg>