<svg xmlns="http://www.w3.org/2000/svg" width="512" height="512" viewBox="0 0 512 512"><defs><clipPath id="c"><circle cx="256" cy="256" r="225.28"/></clipPath></defs><g clip-path="url(#c)"><polygon points="256.0,256.0 240.0,319.0 204.3,297.9" fill="#9EC6B0" stroke="#9EC6B0" stroke-width="1.2" stroke-linejoin="round"/><polygon points="256.0,256.0 204.3,297.9 188.3,256.9" fill="#87C7B0" stroke="#87C7B0" stroke-width="1.2" stroke-linejoin="round"/><polygon points="256.0,256.0 188.3,256.9 199.8,219.6" fill="#97CABD" stroke="#97CABD" stroke-width="1.2" stroke-linejoin="round"/><polygon points="256.0,256.0 199.8,219.6 233.8,195.8" fill="#86C2AE" stroke="#86C2AE" stroke-width="1.2" stroke-linejoin="round"/><polygon points="256.0,256.0 233.8,195.8 275.1,193.4" fill="#81C5A2" stroke="#81C5A2" stroke-width="1.2" stroke-linejoin="round"/><polygon points="256.0,256.0 275.1,193.4 312.4,214.0" fill="#83C6A9" stroke="#83C6A9" stroke-width="1.2" stroke-linejoin="round"/><polygon points="256.0,256.0 312.4,214.0 323.1,251.1" fill="#A7C6BB" stroke="#A7C6BB" stroke-width="1.2" stroke-linejoin="round"/><polygon points="256.0,256.0 323.1,251.1 314.3,292.5" fill="#89B9AC" stroke="#89B9AC" stroke-width="1.2" stroke-linejoin="round"/><polygon points="256.0,256.0 314.3,292.5 278.7,317.5" fill="#8DC8AE" stroke="#8DC8AE" stroke-width="1.2" stroke-linejoin="round"/><polygon points="256.0,256.0 278.7,317.5 240.0,319.0" fill="#98BEB4" stroke="#98BEB4" stroke-width="1.2" stroke-linejoin="round"/><polygon points="240.0,319.0 204.3,297.9 157.9,339.5 219.6,381.4" fill="#51AE97" stroke="#51AE97" stroke-width="1.2" stroke-linejoin="round"/><polygon points="204.3,297.9 188.3,256.9 127.0,262.6 157.9,339.5" fill="#56B09A" stroke="#56B09A" stroke-width="1.2" stroke-linejoin="round"/><polygon points="188.3,256.9 199.8,219.6 151.5,187.2 127.0,262.6" fill="#6AAD97" stroke="#6AAD97" stroke-width="1.2" stroke-linejoin="round"/><polygon points="199.8,219.6 233.8,195.8 206.5,127.9 151.5,187.2" fill="#6DA994" stroke="#6DA994" stroke-width="1.2" stroke-linejoin="round"/><polygon points="233.8,195.8 275.1,193.4 295.1,125.2 206.5,127.9" fill="#75AF93" stroke="#75AF93" stroke-width="1.2" stroke-linejoin="round"/><polygon points="275.1,193.4 312.4,214.0 359.0,169.9 295.1,125.2" fill="#60B288" stroke="#60B288" stroke-width="1.2" stroke-linejoin="round"/><polygon points="312.4,214.0 323.1,251.1 383.2,254.6 359.0,169.9" fill="#629E8A" stroke="#629E8A" stroke-width="1.2" stroke-linejoin="round"/><polygon points="323.1,251.1 314.3,292.5 368.8,329.5 383.2,254.6" fill="#68B89D" stroke="#68B89D" stroke-width="1.2" stroke-linejoin="round"/><polygon points="314.3,292.5 278.7,317.5 302.5,385.4 368.8,329.5" fill="#71B3A0" stroke="#71B3A0" stroke-width="1.2" stroke-linejoin="round"/><polygon points="278.7,317.5 240.0,319.0 219.6,381.4 302.5,385.4" fill="#67AA97" stroke="#67AA97" stroke-width="1.2" stroke-linejoin="round"/><polygon points="219.6,381.4 157.9,339.5 111.3,364.9 210.4,430.4" fill="#4C8F70" stroke="#4C8F70" stroke-width="1.2" stroke-linejoin="round"/><polygon points="157.9,339.5 127.0,262.6 74.2,264.1 111.3,364.9" fill="#3D7D60" stroke="#3D7D60" stroke-width="1.2" stroke-linejoin="round"/><polygon points="127.0,262.6 151.5,187.2 107.8,158.0 74.2,264.1" fill="#4D7861" stroke="#4D7861" stroke-width="1.2" stroke-linejoin="round"/><polygon points="151.5,187.2 206.5,127.9 196.8,88.0 107.8,158.0" fill="#507B6C" stroke="#507B6C" stroke-width="1.2" stroke-linejoin="round"/><polygon points="206.5,127.9 295.1,125.2 306.3,75.3 196.8,88.0" fill="#4C9582" stroke="#4C9582" stroke-width="1.2" stroke-linejoin="round"/><polygon points="295.1,125.2 359.0,169.9 397.4,137.5 306.3,75.3" fill="#3F8569" stroke="#3F8569" stroke-width="1.2" stroke-linejoin="round"/><polygon points="359.0,169.9 383.2,254.6 442.5,245.9 397.4,137.5" fill="#558D7D" stroke="#558D7D" stroke-width="1.2" stroke-linejoin="round"/><polygon points="383.2,254.6 368.8,329.5 404.5,350.8 442.5,245.9" fill="#45976B" stroke="#45976B" stroke-width="1.2" stroke-linejoin="round"/><polygon points="368.8,329.5 302.5,385.4 322.7,434.1 404.5,350.8" fill="#499879" stroke="#499879" stroke-width="1.2" stroke-linejoin="round"/><polygon points="302.5,385.4 219.6,381.4 210.4,430.4 322.7,434.1" fill="#3F7E5D" stroke="#3F7E5D" stroke-width="1.2" stroke-linejoin="round"/><polygon points="210.4,430.4 111.3,364.9 72.0,395.3 192.5,473.8" fill="#365A4D" stroke="#365A4D" stroke-width="1.2" stroke-linejoin="round"/><polygon points="111.3,364.9 74.2,264.1 24.9,271.5 72.0,395.3" fill="#345A46" stroke="#345A46" stroke-width="1.2" stroke-linejoin="round"/><polygon points="74.2,264.1 107.8,158.0 63.6,119.5 24.9,271.5" fill="#2F5A43" stroke="#2F5A43" stroke-width="1.2" stroke-linejoin="round"/><polygon points="107.8,158.0 196.8,88.0 170.7,38.1 63.6,119.5" fill="#3D6857" stroke="#3D6857" stroke-width="1.2" stroke-linejoin="round"/><polygon points="196.8,88.0 306.3,75.3 325.3,35.2 170.7,38.1" fill="#31685A" stroke="#31685A" stroke-width="1.2" stroke-linejoin="round"/><polygon points="306.3,75.3 397.4,137.5 432.0,108.4 325.3,35.2" fill="#375948" stroke="#375948" stroke-width="1.2" stroke-linejoin="round"/><polygon points="397.4,137.5 442.5,245.9 482.8,248.9 432.0,108.4" fill="#32554B" stroke="#32554B" stroke-width="1.2" stroke-linejoin="round"/><polygon points="442.5,245.9 404.5,350.8 450.4,390.9 482.8,248.9" fill="#365649" stroke="#365649" stroke-width="1.2" stroke-linejoin="round"/><polygon points="404.5,350.8 322.7,434.1 330.5,471.7 450.4,390.9" fill="#385F4E" stroke="#385F4E" stroke-width="1.2" stroke-linejoin="round"/><polygon points="322.7,434.1 210.4,430.4 192.5,473.8 330.5,471.7" fill="#336E5D" stroke="#336E5D" stroke-width="1.2" stroke-linejoin="round"/></g><circle cx="256" cy="256" r="225.28" fill="none" stroke="#A2CDBC" stroke-width="7" opacity="0.9"/></svg>