<svg xmlns="http://www.w3.org/2000/svg" width="512" height="512" viewBox="0 0 512 512"><defs><clipPath id="c"><circle cx="256" cy="256" r="225.28"/></clipPath></defs><g clip-path="url(#c)"><polygon points="256.0,256.0 280.8,315.8 247.7,326.2" fill="#ECC5DE" stroke="#ECC5DE" stroke-width="1.2" stroke-linejoin="round"/><polygon points="256.0,256.0 247.7,326.2 219.4,308.4" fill="#F0A4CA" stroke="#F0A4CA" stroke-width="1.2" stroke-linejoin="round"/><polygon points="256.0,256.0 219.4,308.4 195.4,288.7" fill="#F8BCDB" stroke="#F8BCDB" stroke-width="1.2" stroke-linejoin="round"/><polygon points="256.0,256.0 195.4,288.7 185.6,256.7" fill="#E4A4C6" stroke="#E4A4C6" stroke-width="1.2" stroke-linejoin="round"/><polygon points="256.0,256.0 185.6,256.7 199.3,224.9" fill="#F39AC8" stroke="#F39AC8" stroke-width="1.2" stroke-linejoin="round"/><polygon points="256.0,256.0 199.3,224.9 217.4,199.3" fill="#EFA3CF" stroke="#EFA3CF" stroke-width="1.2" stroke-linejoin="round"/><polygon points="256.0,256.0 217.4,199.3 248.3,189.0" fill="#E4B1CF" stroke="#E4B1CF" stroke-width="1.2" stroke-linejoin="round"/><polygon points="256.0,256.0 248.3,189.0 282.9,191.2" fill="#F295CA" stroke="#F295CA" stroke-width="1.2" stroke-linejoin="round"/><polygon points="256.0,256.0 282.9,191.2 307.3,210.2" fill="#F4B3D9" stroke="#F4B3D9" stroke-width="1.2" stroke-linejoin="round"/><polygon points="256.0,256.0 307.3,210.2 319.6,242.0" fill="#EAB5D4" stroke="#EAB5D4" stroke-width="1.2" stroke-linejoin="round"/><polygon points="256.0,256.0 319.6,242.0 322.5,272.7" fill="#DFA9BE" stroke="#DFA9BE" stroke-width="1.2" stroke-linejoin="round"/><polygon points="256.0,256.0 322.5,272.7 305.8,302.8" fill="#F494CB" stroke="#F494CB" stroke-width="1.2" stroke-linejoin="round"/><polygon points="256.0,256.0 305.8,302.8 280.8,315.8" fill="#EAAECE" stroke="#EAAECE" stroke-width="1.2" stroke-linejoin="round"/><polygon points="280.8,315.8 247.7,326.2 238.0,390.2 303.8,378.1" fill="#E663A5" stroke="#E663A5" stroke-width="1.2" stroke-linejoin="round"/><polygon points="247.7,326.2 219.4,308.4 184.0,358.5 238.0,390.2" fill="#E1549C" stroke="#E1549C" stroke-width="1.2" stroke-linejoin="round"/><polygon points="219.4,308.4 195.4,288.7 134.6,320.4 184.0,358.5" fill="#EA4DAA" stroke="#EA4DAA" stroke-width="1.2" stroke-linejoin="round"/><polygon points="195.4,288.7 185.6,256.7 123.2,258.1 134.6,320.4" fill="#D0649B" stroke="#D0649B" stroke-width="1.2" stroke-linejoin="round"/><polygon points="185.6,256.7 199.3,224.9 147.0,197.4 123.2,258.1" fill="#D85D8D" stroke="#D85D8D" stroke-width="1.2" stroke-linejoin="round"/><polygon points="199.3,224.9 217.4,199.3 176.0,147.8 147.0,197.4" fill="#D77EA0" stroke="#D77EA0" stroke-width="1.2" stroke-linejoin="round"/><polygon points="217.4,199.3 248.3,189.0 236.2,124.8 176.0,147.8" fill="#F06CB4" stroke="#F06CB4" stroke-width="1.2" stroke-linejoin="round"/><polygon points="248.3,189.0 282.9,191.2 299.7,132.4 236.2,124.8" fill="#EA67A1" stroke="#EA67A1" stroke-width="1.2" stroke-linejoin="round"/><polygon points="282.9,191.2 307.3,210.2 346.8,172.3 299.7,132.4" fill="#E66BB1" stroke="#E66BB1" stroke-width="1.2" stroke-linejoin="round"/><polygon points="307.3,210.2 319.6,242.0 380.4,223.8 346.8,172.3" fill="#DE578F" stroke="#DE578F" stroke-width="1.2" stroke-linejoin="round"/><polygon points="319.6,242.0 322.5,272.7 387.5,286.0 380.4,223.8" fill="#E466A8" stroke="#E466A8" stroke-width="1.2" stroke-linejoin="round"/><polygon points="322.5,272.7 305.8,302.8 349.0,343.0 387.5,286.0" fill="#E952B6" stroke="#E952B6" stroke-width="1.2" stroke-linejoin="round"/><polygon points="305.8,302.8 280.8,315.8 303.8,378.1 349.0,343.0" fill="#D06BA1" stroke="#D06BA1" stroke-width="1.2" stroke-linejoin="round"/><polygon points="303.8,378.1 238.0,390.2 239.4,440.8 315.3,423.1" fill="#B53878" stroke="#B53878" stroke-width="1.2" stroke-linejoin="round"/><polygon points="238.0,390.2 184.0,358.5 143.1,410.0 239.4,440.8" fill="#D63280" stroke="#D63280" stroke-width="1.2" stroke-linejoin="round"/><polygon points="184.0,358.5 134.6,320.4 94.2,337.9 143.1,410.0" fill="#BD287F" stroke="#BD287F" stroke-width="1.2" stroke-linejoin="round"/><polygon points="134.6,320.4 123.2,258.1 72.1,253.0 94.2,337.9" fill="#D9277D" stroke="#D9277D" stroke-width="1.2" stroke-linejoin="round"/><polygon points="123.2,258.1 147.0,197.4 83.9,167.7 72.1,253.0" fill="#BA277F" stroke="#BA277F" stroke-width="1.2" stroke-linejoin="round"/><polygon points="147.0,197.4 176.0,147.8 150.3,108.1 83.9,167.7" fill="#E11869" stroke="#E11869" stroke-width="1.2" stroke-linejoin="round"/><polygon points="176.0,147.8 236.2,124.8 230.8,66.8 150.3,108.1" fill="#C3487B" stroke="#C3487B" stroke-width="1.2" stroke-linejoin="round"/><polygon points="236.2,124.8 299.7,132.4 325.1,77.9 230.8,66.8" fill="#DF2E86" stroke="#DF2E86" stroke-width="1.2" stroke-linejoin="round"/><polygon points="299.7,132.4 346.8,172.3 386.1,138.0 325.1,77.9" fill="#B33E77" stroke="#B33E77" stroke-width="1.2" stroke-linejoin="round"/><polygon points="346.8,172.3 380.4,223.8 427.5,208.2 386.1,138.0" fill="#BA4490" stroke="#BA4490" stroke-width="1.2" stroke-linejoin="round"/><polygon points="380.4,223.8 387.5,286.0 440.7,304.1 427.5,208.2" fill="#D92A87" stroke="#D92A87" stroke-width="1.2" stroke-linejoin="round"/><polygon points="387.5,286.0 349.0,343.0 392.3,373.5 440.7,304.1" fill="#DC258A" stroke="#DC258A" stroke-width="1.2" stroke-linejoin="round"/><polygon points="349.0,343.0 303.8,378.1 315.3,423.1 392.3,373.5" fill="#E0187F" stroke="#E0187F" stroke-width="1.2" stroke-linejoin="round"/><polygon points="315.3,423.1 239.4,440.8 233.6,481.0 332.8,472.3" fill="#902969" stroke="#902969" stroke-width="1.2" stroke-linejoin="round"/><polygon points="239.4,440.8 143.1,410.0 120.0,442.8 233.6,481.0" fill="#892656" stroke="#892656" stroke-width="1.2" stroke-linejoin="round"/><polygon points="143.1,410.0 94.2,337.9 54.0,371.1 120.0,442.8" fill="#90165F" stroke="#90165F" stroke-width="1.2" stroke-linejoin="round"/><polygon points="94.2,337.9 72.1,253.0 30.0,255.7 54.0,371.1" fill="#872D56" stroke="#872D56" stroke-width="1.2" stroke-linejoin="round"/><polygon points="72.1,253.0 83.9,167.7 47.6,146.1 30.0,255.7" fill="#A81054" stroke="#A81054" stroke-width="1.2" stroke-linejoin="round"/><polygon points="83.9,167.7 150.3,108.1 127.7,59.7 47.6,146.1" fill="#901243" stroke="#901243" stroke-width="1.2" stroke-linejoin="round"/><polygon points="150.3,108.1 230.8,66.8 234.5,27.4 127.7,59.7" fill="#9D1B51" stroke="#9D1B51" stroke-width="1.2" stroke-linejoin="round"/><polygon points="230.8,66.8 325.1,77.9 332.5,40.8 234.5,27.4" fill="#97325D" stroke="#97325D" stroke-width="1.2" stroke-linejoin="round"/><polygon points="325.1,77.9 386.1,138.0 432.0,102.7 332.5,40.8" fill="#A31D5C" stroke="#A31D5C" stroke-width="1.2" stroke-linejoin="round"/><polygon points="386.1,138.0 427.5,208.2 484.2,194.4 432.0,102.7" fill="#9E2B5F" stroke="#9E2B5F" stroke-width="1.2" stroke-linejoin="round"/><polygon points="427.5,208.2 440.7,304.1 485.9,317.2 484.2,194.4" fill="#84204A" stroke="#84204A" stroke-width="1.2" stroke-linejoin="round"/><polygon points="440.7,304.1 392.3,373.5 428.0,407.6 485.9,317.2" fill="#8D225D" stroke="#8D225D" stroke-width="1.2" stroke-linejoin="round"/><polygon points="392.3,373.5 315.3,423.1 332.8,472.3 428.0,407.6" fill="#A11A59" stroke="#A11A59" stroke-width="1.2" stroke-linejoin="round"/></g><circle cx="256" cy="256" r="225.28" fill="none" stroke="#E688B8" stroke-width="7" opacity="0.9"/></svg>