<svg xmlns="http://www.w3.org/2000/svg" width="512" height="512" viewBox="0 0 512 512"><defs><clipPath id="c"><circle cx="256" cy="256" r="225.28"/></clipPath></defs><g clip-path="url(#c)"><polygon points="256.0,256.0 222.3,196.6 263.2,192.5" fill="#DF8995" stroke="#DF8995" stroke-width="1.2" stroke-linejoin="round"/><polygon points="256.0,256.0 263.2,192.5 299.7,203.0" fill="#FC8381" stroke="#FC8381" stroke-width="1.2" stroke-linejoin="round"/><polygon points="256.0,256.0 299.7,203.0 322.9,239.5" fill="#F58E92" stroke="#F58E92" stroke-width="1.2" stroke-linejoin="round"/><polygon points="256.0,256.0 322.9,239.5 320.9,284.7" fill="#FB7490" stroke="#FB7490" stroke-width="1.2" stroke-linejoin="round"/><polygon points="256.0,256.0 320.9,284.7 289.1,312.5" fill="#F37F79" stroke="#F37F79" stroke-width="1.2" stroke-linejoin="round"/><polygon points="256.0,256.0 289.1,312.5 251.9,323.2" fill="#EF7279" stroke="#EF7279" stroke-width="1.2" stroke-linejoin="round"/><polygon points="256.0,256.0 251.9,323.2 213.8,306.8" fill="#E793A1" stroke="#E793A1" stroke-width="1.2" stroke-linejoin="round"/><polygon points="256.0,256.0 213.8,306.8 192.7,272.0" fill="#E08897" stroke="#E08897" stroke-width="1.2" stroke-linejoin="round"/><polygon points="256.0,256.0 192.7,272.0 191.4,227.5" fill="#F5879A" stroke="#F5879A" stroke-width="1.2" stroke-linejoin="round"/><polygon points="256.0,256.0 191.4,227.5 222.3,196.6" fill="#E6999D" stroke="#E6999D" stroke-width="1.2" stroke-linejoin="round"/><polygon points="222.3,196.6 263.2,192.5 265.6,131.7 190.2,146.0" fill="#E45853" stroke="#E45853" stroke-width="1.2" stroke-linejoin="round"/><polygon points="263.2,192.5 299.7,203.0 341.4,155.4 265.6,131.7" fill="#F93C4C" stroke="#F93C4C" stroke-width="1.2" stroke-linejoin="round"/><polygon points="299.7,203.0 322.9,239.5 379.1,229.2 341.4,155.4" fill="#DF3737" stroke="#DF3737" stroke-width="1.2" stroke-linejoin="round"/><polygon points="322.9,239.5 320.9,284.7 378.4,309.5 379.1,229.2" fill="#CE5666" stroke="#CE5666" stroke-width="1.2" stroke-linejoin="round"/><polygon points="320.9,284.7 289.1,312.5 327.7,368.4 378.4,309.5" fill="#C9424F" stroke="#C9424F" stroke-width="1.2" stroke-linejoin="round"/><polygon points="289.1,312.5 251.9,323.2 247.6,385.7 327.7,368.4" fill="#D46761" stroke="#D46761" stroke-width="1.2" stroke-linejoin="round"/><polygon points="251.9,323.2 213.8,306.8 165.8,354.9 247.6,385.7" fill="#E73E4E" stroke="#E73E4E" stroke-width="1.2" stroke-linejoin="round"/><polygon points="213.8,306.8 192.7,272.0 131.0,286.4 165.8,354.9" fill="#EA3E46" stroke="#EA3E46" stroke-width="1.2" stroke-linejoin="round"/><polygon points="192.7,272.0 191.4,227.5 131.8,202.7 131.0,286.4" fill="#EB4A63" stroke="#EB4A63" stroke-width="1.2" stroke-linejoin="round"/><polygon points="191.4,227.5 222.3,196.6 190.2,146.0 131.8,202.7" fill="#EE3956" stroke="#EE3956" stroke-width="1.2" stroke-linejoin="round"/><polygon points="190.2,146.0 265.6,131.7 272.2,81.5 163.1,89.4" fill="#BA263F" stroke="#BA263F" stroke-width="1.2" stroke-linejoin="round"/><polygon points="265.6,131.7 341.4,155.4 376.4,117.6 272.2,81.5" fill="#C6163D" stroke="#C6163D" stroke-width="1.2" stroke-linejoin="round"/><polygon points="341.4,155.4 379.1,229.2 445.0,220.4 376.4,117.6" fill="#9A2A3E" stroke="#9A2A3E" stroke-width="1.2" stroke-linejoin="round"/><polygon points="379.1,229.2 378.4,309.5 419.1,328.4 445.0,220.4" fill="#B51710" stroke="#B51710" stroke-width="1.2" stroke-linejoin="round"/><polygon points="378.4,309.5 327.7,368.4 347.5,415.3 419.1,328.4" fill="#E00C2F" stroke="#E00C2F" stroke-width="1.2" stroke-linejoin="round"/><polygon points="327.7,368.4 247.6,385.7 243.0,434.0 347.5,415.3" fill="#C70A05" stroke="#C70A05" stroke-width="1.2" stroke-linejoin="round"/><polygon points="247.6,385.7 165.8,354.9 127.2,398.3 243.0,434.0" fill="#C01C1F" stroke="#C01C1F" stroke-width="1.2" stroke-linejoin="round"/><polygon points="165.8,354.9 131.0,286.4 80.9,293.1 127.2,398.3" fill="#B21435" stroke="#B21435" stroke-width="1.2" stroke-linejoin="round"/><polygon points="131.0,286.4 131.8,202.7 83.6,182.0 80.9,293.1" fill="#BA323D" stroke="#BA323D" stroke-width="1.2" stroke-linejoin="round"/><polygon points="131.8,202.7 190.2,146.0 163.1,89.4 83.6,182.0" fill="#AB252B" stroke="#AB252B" stroke-width="1.2" stroke-linejoin="round"/><polygon points="163.1,89.4 272.2,81.5 283.2,24.4 139.1,58.7" fill="#810C17" stroke="#810C17" stroke-width="1.2" stroke-linejoin="round"/><polygon points="272.2,81.5 376.4,117.6 417.9,81.3 283.2,24.4" fill="#91130D" stroke="#91130D" stroke-width="1.2" stroke-linejoin="round"/><polygon points="376.4,117.6 445.0,220.4 480.9,203.6 417.9,81.3" fill="#8C0208" stroke="#8C0208" stroke-width="1.2" stroke-linejoin="round"/><polygon points="445.0,220.4 419.1,328.4 474.0,346.0 480.9,203.6" fill="#A71124" stroke="#A71124" stroke-width="1.2" stroke-linejoin="round"/><polygon points="419.1,328.4 347.5,415.3 379.1,448.7 474.0,346.0" fill="#76181D" stroke="#76181D" stroke-width="1.2" stroke-linejoin="round"/><polygon points="347.5,415.3 243.0,434.0 233.6,493.4 379.1,448.7" fill="#842528" stroke="#842528" stroke-width="1.2" stroke-linejoin="round"/><polygon points="243.0,434.0 127.2,398.3 99.9,424.4 233.6,493.4" fill="#8F1729" stroke="#8F1729" stroke-width="1.2" stroke-linejoin="round"/><polygon points="127.2,398.3 80.9,293.1 36.3,309.1 99.9,424.4" fill="#A41309" stroke="#A41309" stroke-width="1.2" stroke-linejoin="round"/><polygon points="80.9,293.1 83.6,182.0 47.3,168.1 36.3,309.1" fill="#99161E" stroke="#99161E" stroke-width="1.2" stroke-linejoin="round"/><polygon points="83.6,182.0 163.1,89.4 139.1,58.7 47.3,168.1" fill="#A21007" stroke="#A21007" stroke-width="1.2" stroke-linejoin="round"/></g><circle cx="256" cy="256" r="225.28" fill="none" stroke="#EF7F87" stroke-width="7" opacity="0.9"/></svg>