<svg xmlns="http://www.w3.org/2000/svg" width="512" height="512" viewBox="0 0 512 512"><defs><clipPath id="c"><circle cx="256" cy="256" r="225.28"/></clipPath></defs><g clip-path="url(#c)"><polygon points="256.0,256.0 205.3,301.1 187.6,274.1" fill="#E8D08E" stroke="#E8D08E" stroke-width="1.2" stroke-linejoin="round"/><polygon points="256.0,256.0 187.6,274.1 188.4,241.1" fill="#E4D29A" stroke="#E4D29A" stroke-width="1.2" stroke-linejoin="round"/><polygon points="256.0,256.0 188.4,241.1 202.8,213.9" fill="#E5C5A1" stroke="#E5C5A1" stroke-width="1.2" stroke-linejoin="round"/><polygon points="256.0,256.0 202.8,213.9 230.2,194.5" fill="#ECD693" stroke="#ECD693" stroke-width="1.2" stroke-linejoin="round"/><polygon points="256.0,256.0 230.2,194.5 261.9,190.0" fill="#EECA94" stroke="#EECA94" stroke-width="1.2" stroke-linejoin="round"/><polygon points="256.0,256.0 261.9,190.0 290.6,201.3" fill="#EFD09F" stroke="#EFD09F" stroke-width="1.2" stroke-linejoin="round"/><polygon points="256.0,256.0 290.6,201.3 313.5,225.5" fill="#E8CA97" stroke="#E8CA97" stroke-width="1.2" stroke-linejoin="round"/><polygon points="256.0,256.0 313.5,225.5 321.7,254.0" fill="#E8CEA4" stroke="#E8CEA4" stroke-width="1.2" stroke-linejoin="round"/><polygon points="256.0,256.0 321.7,254.0 314.1,284.4" fill="#EAD1AA" stroke="#EAD1AA" stroke-width="1.2" stroke-linejoin="round"/><polygon points="256.0,256.0 314.1,284.4 294.1,307.7" fill="#EFDFA3" stroke="#EFDFA3" stroke-width="1.2" stroke-linejoin="round"/><polygon points="256.0,256.0 294.1,307.7 267.9,325.2" fill="#E4D7AB" stroke="#E4D7AB" stroke-width="1.2" stroke-linejoin="round"/><polygon points="256.0,256.0 267.9,325.2 236.2,318.1" fill="#DECEA7" stroke="#DECEA7" stroke-width="1.2" stroke-linejoin="round"/><polygon points="256.0,256.0 236.2,318.1 205.3,301.1" fill="#E5D4AF" stroke="#E5D4AF" stroke-width="1.2" stroke-linejoin="round"/><polygon points="205.3,301.1 187.6,274.1 123.7,287.6 166.7,345.0" fill="#C69962" stroke="#C69962" stroke-width="1.2" stroke-linejoin="round"/><polygon points="187.6,274.1 188.4,241.1 134.4,230.0 123.7,287.6" fill="#C9B775" stroke="#C9B775" stroke-width="1.2" stroke-linejoin="round"/><polygon points="188.4,241.1 202.8,213.9 153.6,164.8 134.4,230.0" fill="#C19561" stroke="#C19561" stroke-width="1.2" stroke-linejoin="round"/><polygon points="202.8,213.9 230.2,194.5 206.7,140.3 153.6,164.8" fill="#CCAA72" stroke="#CCAA72" stroke-width="1.2" stroke-linejoin="round"/><polygon points="230.2,194.5 261.9,190.0 263.7,126.6 206.7,140.3" fill="#C8A367" stroke="#C8A367" stroke-width="1.2" stroke-linejoin="round"/><polygon points="261.9,190.0 290.6,201.3 329.5,145.1 263.7,126.6" fill="#CCBA73" stroke="#CCBA73" stroke-width="1.2" stroke-linejoin="round"/><polygon points="290.6,201.3 313.5,225.5 371.8,194.9 329.5,145.1" fill="#C9B161" stroke="#C9B161" stroke-width="1.2" stroke-linejoin="round"/><polygon points="313.5,225.5 321.7,254.0 393.2,248.3 371.8,194.9" fill="#CAAA7A" stroke="#CAAA7A" stroke-width="1.2" stroke-linejoin="round"/><polygon points="321.7,254.0 314.1,284.4 367.2,310.0 393.2,248.3" fill="#CDB566" stroke="#CDB566" stroke-width="1.2" stroke-linejoin="round"/><polygon points="314.1,284.4 294.1,307.7 328.7,359.6 367.2,310.0" fill="#D9A95A" stroke="#D9A95A" stroke-width="1.2" stroke-linejoin="round"/><polygon points="294.1,307.7 267.9,325.2 271.6,390.8 328.7,359.6" fill="#DBA868" stroke="#DBA868" stroke-width="1.2" stroke-linejoin="round"/><polygon points="267.9,325.2 236.2,318.1 211.3,382.7 271.6,390.8" fill="#C3A665" stroke="#C3A665" stroke-width="1.2" stroke-linejoin="round"/><polygon points="236.2,318.1 205.3,301.1 166.7,345.0 211.3,382.7" fill="#D8B569" stroke="#D8B569" stroke-width="1.2" stroke-linejoin="round"/><polygon points="166.7,345.0 123.7,287.6 84.8,303.5 117.4,392.1" fill="#A78836" stroke="#A78836" stroke-width="1.2" stroke-linejoin="round"/><polygon points="123.7,287.6 134.4,230.0 74.7,214.0 84.8,303.5" fill="#AE7C2C" stroke="#AE7C2C" stroke-width="1.2" stroke-linejoin="round"/><polygon points="134.4,230.0 153.6,164.8 104.2,137.1 74.7,214.0" fill="#A88443" stroke="#A88443" stroke-width="1.2" stroke-linejoin="round"/><polygon points="153.6,164.8 206.7,140.3 193.4,87.0 104.2,137.1" fill="#CC9423" stroke="#CC9423" stroke-width="1.2" stroke-linejoin="round"/><polygon points="206.7,140.3 263.7,126.6 272.3,75.2 193.4,87.0" fill="#B39A3E" stroke="#B39A3E" stroke-width="1.2" stroke-linejoin="round"/><polygon points="263.7,126.6 329.5,145.1 358.3,108.0 272.3,75.2" fill="#CB901F" stroke="#CB901F" stroke-width="1.2" stroke-linejoin="round"/><polygon points="329.5,145.1 371.8,194.9 420.2,158.1 358.3,108.0" fill="#BB8931" stroke="#BB8931" stroke-width="1.2" stroke-linejoin="round"/><polygon points="371.8,194.9 393.2,248.3 437.4,251.0 420.2,158.1" fill="#C9A834" stroke="#C9A834" stroke-width="1.2" stroke-linejoin="round"/><polygon points="393.2,248.3 367.2,310.0 425.1,331.9 437.4,251.0" fill="#CB9635" stroke="#CB9635" stroke-width="1.2" stroke-linejoin="round"/><polygon points="367.2,310.0 328.7,359.6 365.9,407.2 425.1,331.9" fill="#CE9E20" stroke="#CE9E20" stroke-width="1.2" stroke-linejoin="round"/><polygon points="328.7,359.6 271.6,390.8 276.4,433.5 365.9,407.2" fill="#C8982D" stroke="#C8982D" stroke-width="1.2" stroke-linejoin="round"/><polygon points="271.6,390.8 211.3,382.7 193.3,434.8 276.4,433.5" fill="#BE762B" stroke="#BE762B" stroke-width="1.2" stroke-linejoin="round"/><polygon points="211.3,382.7 166.7,345.0 117.4,392.1 193.3,434.8" fill="#A5813F" stroke="#A5813F" stroke-width="1.2" stroke-linejoin="round"/><polygon points="117.4,392.1 84.8,303.5 26.0,312.6 87.0,415.4" fill="#8B5F33" stroke="#8B5F33" stroke-width="1.2" stroke-linejoin="round"/><polygon points="84.8,303.5 74.7,214.0 31.8,204.9 26.0,312.6" fill="#785628" stroke="#785628" stroke-width="1.2" stroke-linejoin="round"/><polygon points="74.7,214.0 104.2,137.1 72.1,104.1 31.8,204.9" fill="#867026" stroke="#867026" stroke-width="1.2" stroke-linejoin="round"/><polygon points="104.2,137.1 193.4,87.0 160.2,41.2 72.1,104.1" fill="#9B6727" stroke="#9B6727" stroke-width="1.2" stroke-linejoin="round"/><polygon points="193.4,87.0 272.3,75.2 280.1,26.7 160.2,41.2" fill="#816423" stroke="#816423" stroke-width="1.2" stroke-linejoin="round"/><polygon points="272.3,75.2 358.3,108.0 388.7,66.7 280.1,26.7" fill="#93792B" stroke="#93792B" stroke-width="1.2" stroke-linejoin="round"/><polygon points="358.3,108.0 420.2,158.1 454.9,147.1 388.7,66.7" fill="#9E631D" stroke="#9E631D" stroke-width="1.2" stroke-linejoin="round"/><polygon points="420.2,158.1 437.4,251.0 485.4,247.8 454.9,147.1" fill="#7E6533" stroke="#7E6533" stroke-width="1.2" stroke-linejoin="round"/><polygon points="437.4,251.0 425.1,331.9 457.7,363.7 485.4,247.8" fill="#99721A" stroke="#99721A" stroke-width="1.2" stroke-linejoin="round"/><polygon points="425.1,331.9 365.9,407.2 389.3,448.0 457.7,363.7" fill="#987227" stroke="#987227" stroke-width="1.2" stroke-linejoin="round"/><polygon points="365.9,407.2 276.4,433.5 297.0,487.4 389.3,448.0" fill="#997224" stroke="#997224" stroke-width="1.2" stroke-linejoin="round"/><polygon points="276.4,433.5 193.3,434.8 176.9,477.5 297.0,487.4" fill="#8F6920" stroke="#8F6920" stroke-width="1.2" stroke-linejoin="round"/><polygon points="193.3,434.8 117.4,392.1 87.0,415.4 176.9,477.5" fill="#7D6B33" stroke="#7D6B33" stroke-width="1.2" stroke-linejoin="round"/></g><circle cx="256" cy="256" r="225.28" fill="none" stroke="#E2C48D" stroke-width="7" opacity="0.9"/></svg>