<svg xmlns="http://www.w3.org/2000/svg" width="512" height="512" viewBox="0 0 512 512"><defs><clipPath id="c"><circle cx="256" cy="256" r="225.28"/></clipPath></defs><g clip-path="url(#c)"><polygon points="256.0,256.0 294.1,313.1 262.6,324.8" fill="#B19FD3" stroke="#B19FD3" stroke-width="1.2" stroke-linejoin="round"/><polygon points="256.0,256.0 262.6,324.8 225.1,313.9" fill="#AE96DF" stroke="#AE96DF" stroke-width="1.2" stroke-linejoin="round"/><polygon points="256.0,256.0 225.1,313.9 203.4,292.5" fill="#B59BD7" stroke="#B59BD7" stroke-width="1.2" stroke-linejoin="round"/><polygon points="256.0,256.0 203.4,292.5 191.1,262.4" fill="#AE88DD" stroke="#AE88DD" stroke-width="1.2" stroke-linejoin="round"/><polygon points="256.0,256.0 191.1,262.4 195.5,225.9" fill="#9D8CD7" stroke="#9D8CD7" stroke-width="1.2" stroke-linejoin="round"/><polygon points="256.0,256.0 195.5,225.9 221.7,201.1" fill="#C2ADDF" stroke="#C2ADDF" stroke-width="1.2" stroke-linejoin="round"/><polygon points="256.0,256.0 221.7,201.1 253.1,188.8" fill="#B49FD6" stroke="#B49FD6" stroke-width="1.2" stroke-linejoin="round"/><polygon points="256.0,256.0 253.1,188.8 284.4,194.8" fill="#AF8ED9" stroke="#AF8ED9" stroke-width="1.2" stroke-linejoin="round"/><polygon points="256.0,256.0 284.4,194.8 312.9,217.7" fill="#A393D0" stroke="#A393D0" stroke-width="1.2" stroke-linejoin="round"/><polygon points="256.0,256.0 312.9,217.7 326.8,253.7" fill="#B19DD4" stroke="#B19DD4" stroke-width="1.2" stroke-linejoin="round"/><polygon points="256.0,256.0 326.8,253.7 314.6,285.2" fill="#A99ED6" stroke="#A99ED6" stroke-width="1.2" stroke-linejoin="round"/><polygon points="256.0,256.0 314.6,285.2 294.1,313.1" fill="#B29BE1" stroke="#B29BE1" stroke-width="1.2" stroke-linejoin="round"/><polygon points="294.1,313.1 262.6,324.8 262.1,387.0 324.9,359.1" fill="#886ED0" stroke="#886ED0" stroke-width="1.2" stroke-linejoin="round"/><polygon points="262.6,324.8 225.1,313.9 194.7,372.7 262.1,387.0" fill="#7D62D4" stroke="#7D62D4" stroke-width="1.2" stroke-linejoin="round"/><polygon points="225.1,313.9 203.4,292.5 145.6,331.7 194.7,372.7" fill="#8A6DC2" stroke="#8A6DC2" stroke-width="1.2" stroke-linejoin="round"/><polygon points="203.4,292.5 191.1,262.4 125.7,261.6 145.6,331.7" fill="#957BC4" stroke="#957BC4" stroke-width="1.2" stroke-linejoin="round"/><polygon points="191.1,262.4 195.5,225.9 140.1,198.6 125.7,261.6" fill="#6D5ABC" stroke="#6D5ABC" stroke-width="1.2" stroke-linejoin="round"/><polygon points="195.5,225.9 221.7,201.1 184.4,145.6 140.1,198.6" fill="#7260BB" stroke="#7260BB" stroke-width="1.2" stroke-linejoin="round"/><polygon points="221.7,201.1 253.1,188.8 243.4,129.3 184.4,145.6" fill="#7362B9" stroke="#7362B9" stroke-width="1.2" stroke-linejoin="round"/><polygon points="253.1,188.8 284.4,194.8 311.4,139.9 243.4,129.3" fill="#8E7DC1" stroke="#8E7DC1" stroke-width="1.2" stroke-linejoin="round"/><polygon points="284.4,194.8 312.9,217.7 365.2,177.3 311.4,139.9" fill="#846AC7" stroke="#846AC7" stroke-width="1.2" stroke-linejoin="round"/><polygon points="312.9,217.7 326.8,253.7 381.5,249.3 365.2,177.3" fill="#7C61C0" stroke="#7C61C0" stroke-width="1.2" stroke-linejoin="round"/><polygon points="326.8,253.7 314.6,285.2 380.1,312.3 381.5,249.3" fill="#8568D7" stroke="#8568D7" stroke-width="1.2" stroke-linejoin="round"/><polygon points="314.6,285.2 294.1,313.1 324.9,359.1 380.1,312.3" fill="#7C55CA" stroke="#7C55CA" stroke-width="1.2" stroke-linejoin="round"/><polygon points="324.9,359.1 262.1,387.0 265.4,438.6 356.5,403.3" fill="#522DA7" stroke="#522DA7" stroke-width="1.2" stroke-linejoin="round"/><polygon points="262.1,387.0 194.7,372.7 167.9,424.6 265.4,438.6" fill="#623D9D" stroke="#623D9D" stroke-width="1.2" stroke-linejoin="round"/><polygon points="194.7,372.7 145.6,331.7 97.7,369.5 167.9,424.6" fill="#6431B5" stroke="#6431B5" stroke-width="1.2" stroke-linejoin="round"/><polygon points="145.6,331.7 125.7,261.6 77.9,273.0 97.7,369.5" fill="#57479E" stroke="#57479E" stroke-width="1.2" stroke-linejoin="round"/><polygon points="125.7,261.6 140.1,198.6 89.8,170.8 77.9,273.0" fill="#4D39A2" stroke="#4D39A2" stroke-width="1.2" stroke-linejoin="round"/><polygon points="140.1,198.6 184.4,145.6 150.9,94.1 89.8,170.8" fill="#5B49A8" stroke="#5B49A8" stroke-width="1.2" stroke-linejoin="round"/><polygon points="184.4,145.6 243.4,129.3 246.9,66.4 150.9,94.1" fill="#4931AC" stroke="#4931AC" stroke-width="1.2" stroke-linejoin="round"/><polygon points="243.4,129.3 311.4,139.9 336.9,92.5 246.9,66.4" fill="#5A4390" stroke="#5A4390" stroke-width="1.2" stroke-linejoin="round"/><polygon points="311.4,139.9 365.2,177.3 411.7,150.1 336.9,92.5" fill="#583A98" stroke="#583A98" stroke-width="1.2" stroke-linejoin="round"/><polygon points="365.2,177.3 381.5,249.3 446.9,248.6 411.7,150.1" fill="#4732AA" stroke="#4732AA" stroke-width="1.2" stroke-linejoin="round"/><polygon points="381.5,249.3 380.1,312.3 430.0,337.0 446.9,248.6" fill="#5A4394" stroke="#5A4394" stroke-width="1.2" stroke-linejoin="round"/><polygon points="380.1,312.3 324.9,359.1 356.5,403.3 430.0,337.0" fill="#554691" stroke="#554691" stroke-width="1.2" stroke-linejoin="round"/><polygon points="356.5,403.3 265.4,438.6 271.5,486.1 380.4,451.3" fill="#502E84" stroke="#502E84" stroke-width="1.2" stroke-linejoin="round"/><polygon points="265.4,438.6 167.9,424.6 145.0,465.3 271.5,486.1" fill="#492990" stroke="#492990" stroke-width="1.2" stroke-linejoin="round"/><polygon points="167.9,424.6 97.7,369.5 66.3,382.7 145.0,465.3" fill="#422482" stroke="#422482" stroke-width="1.2" stroke-linejoin="round"/><polygon points="97.7,369.5 77.9,273.0 31.5,275.7 66.3,382.7" fill="#383065" stroke="#383065" stroke-width="1.2" stroke-linejoin="round"/><polygon points="77.9,273.0 89.8,170.8 47.9,153.7 31.5,275.7" fill="#412B88" stroke="#412B88" stroke-width="1.2" stroke-linejoin="round"/><polygon points="89.8,170.8 150.9,94.1 124.7,71.5 47.9,153.7" fill="#3C207B" stroke="#3C207B" stroke-width="1.2" stroke-linejoin="round"/><polygon points="150.9,94.1 246.9,66.4 236.1,24.2 124.7,71.5" fill="#55318C" stroke="#55318C" stroke-width="1.2" stroke-linejoin="round"/><polygon points="246.9,66.4 336.9,92.5 362.9,50.5 236.1,24.2" fill="#532E8D" stroke="#532E8D" stroke-width="1.2" stroke-linejoin="round"/><polygon points="336.9,92.5 411.7,150.1 457.5,128.8 362.9,50.5" fill="#422682" stroke="#422682" stroke-width="1.2" stroke-linejoin="round"/><polygon points="411.7,150.1 446.9,248.6 494.1,243.7 457.5,128.8" fill="#473085" stroke="#473085" stroke-width="1.2" stroke-linejoin="round"/><polygon points="446.9,248.6 430.0,337.0 457.5,361.2 494.1,243.7" fill="#442780" stroke="#442780" stroke-width="1.2" stroke-linejoin="round"/><polygon points="430.0,337.0 356.5,403.3 380.4,451.3 457.5,361.2" fill="#55338A" stroke="#55338A" stroke-width="1.2" stroke-linejoin="round"/></g><circle cx="256" cy="256" r="225.28" fill="none" stroke="#AA96D9" stroke-width="7" opacity="0.9"/></svg>